<?xml version="1.0" encoding="iso-8859-1"?>
<!-- Generator: Adobe Illustrator 19.0.0, SVG Export Plug-In . SVG Version: 6.00 Build 0)  -->
<svg version="1.1" id="Capa_1" xmlns="http://www.w3.org/2000/svg" xmlns:xlink="http://www.w3.org/1999/xlink" x="0px" y="0px"
	 viewBox="0 0 512 512" style="enable-background:new 0 0 512 512;" xml:space="preserve">
<path style="fill:#ECEFF1;" d="M443.882,5.28C440.842,1.92,436.554,0,432.01,0h-352c-4.512,0-8.832,1.92-11.872,5.28
	c-3.008,3.328-4.512,7.808-4.064,12.32l48,480c0.832,8.192,7.712,14.4,15.936,14.4h256c8.224,0,15.104-6.208,15.904-14.4l48-480
	C448.394,13.088,446.922,8.608,443.882,5.28z"/>
<path style="fill:#2196F3;" d="M401.29,163.2L369.61,480h-227.2l-35.52-354.24c40-12.8,100.8-21.44,149.12,18.24
	C302.73,182.4,361.61,175.36,401.29,163.2z"/>
</svg>
